HIERARCHY
ROOT Hips
{
	OFFSET 0.00000 0.00000 0.00000
	CHANNELS 6 Xposition Yposition Zposition Zrotation Yrotation Xrotation 
	JOINT LHipJoint
	{
		OFFSET 0 0 0
		CHANNELS 3 Zrotation Yrotation Xrotation
		JOINT LeftUpLeg
		{
			OFFSET 1.28366 -1.58472 0.87544
			CHANNELS 3 Zrotation Yrotation Xrotation
			JOINT LeftLeg
			{
				OFFSET 2.18587 -6.00562 0.00000
				CHANNELS 3 Zrotation Yrotation Xrotation
				JOINT LeftFoot
				{
					OFFSET 2.39085 -6.56880 0.00000
					CHANNELS 3 Zrotation Yrotation Xrotation
					JOINT LeftToeBase
					{
						OFFSET 0.12003 -0.32979 2.03101
						CHANNELS 3 Zrotation Yrotation Xrotation
						End Site
						{
							OFFSET 0.00000 -0.00000 1.04074
						}
					}
				}
			}
		}
	}
	JOINT RHipJoint
	{
		OFFSET 0 0 0
		CHANNELS 3 Zrotation Yrotation Xrotation
		JOINT RightUpLeg
		{
			OFFSET -1.21795 -1.58472 0.87544
			CHANNELS 3 Zrotation Yrotation Xrotation
			JOINT RightLeg
			{
				OFFSET -2.22714 -6.11902 0.00000
				CHANNELS 3 Zrotation Yrotation Xrotation
				JOINT RightFoot
				{
					OFFSET -2.40306 -6.60235 0.00000
					CHANNELS 3 Zrotation Yrotation Xrotation
					JOINT RightToeBase
					{
						OFFSET -0.15519 -0.42640 1.91430
						CHANNELS 3 Zrotation Yrotation Xrotation
						End Site
						{
							OFFSET -0.00000 -0.00000 0.99082
						}
					}
				}
			}
		}
	}
	JOINT LowerBack
	{
		OFFSET 0 0 0
		CHANNELS 3 Zrotation Yrotation Xrotation
		JOINT Spine
		{
			OFFSET 0.01180 1.76430 -0.06387
			CHANNELS 3 Zrotation Yrotation Xrotation
			JOINT Spine1
			{
				OFFSET -0.00388 1.74651 0.09536
				CHANNELS 3 Zrotation Yrotation Xrotation
				JOINT Neck
				{
					OFFSET 0 0 0
					CHANNELS 3 Zrotation Yrotation Xrotation
					JOINT Neck1
					{
						OFFSET 0.04111 1.46174 0.14397
						CHANNELS 3 Zrotation Yrotation Xrotation
						JOINT Head
						{
							OFFSET 0.00502 1.44580 -0.31711
							CHANNELS 3 Zrotation Yrotation Xrotation
							End Site
							{
								OFFSET -0.00395 1.49251 -0.12327
							}
						}
					}
				}
				JOINT LeftShoulder
				{
					OFFSET 0 0 0
					CHANNELS 3 Zrotation Yrotation Xrotation
					JOINT LeftArm
					{
						OFFSET 2.70917 1.34870 -0.15417
						CHANNELS 3 Zrotation Yrotation Xrotation
						JOINT LeftForeArm
						{
							OFFSET 4.46610 -0.00000 -0.00000
							CHANNELS 3 Zrotation Yrotation Xrotation
							JOINT LeftHand
							{
								OFFSET 3.41414 -0.00000 0.00000
								CHANNELS 3 Zrotation Yrotation Xrotation
								JOINT LeftFingerBase
								{
									OFFSET 0 0 0
									CHANNELS 3 Zrotation Yrotation Xrotation
									JOINT LeftHandIndex1
									{
										OFFSET 0.32830 -0.00000 0.00000
										CHANNELS 3 Zrotation Yrotation Xrotation
										End Site
										{
											OFFSET 0.26468 -0.00000 0.00000
										}
									}
								}
								JOINT LThumb
								{
									OFFSET 0 0 0
									CHANNELS 3 Zrotation Yrotation Xrotation
									End Site
									{
										OFFSET 0.26872 -0.00000 0.26872
									}
								}
							}
						}
					}
				}
				JOINT RightShoulder
				{
					OFFSET 0 0 0
					CHANNELS 3 Zrotation Yrotation Xrotation
					JOINT RightArm
					{
						OFFSET -3.06316 1.13725 -0.10883
						CHANNELS 3 Zrotation Yrotation Xrotation
						JOINT RightForeArm
						{
							OFFSET -4.40431 -0.00000 0.00000
							CHANNELS 3 Zrotation Yrotation Xrotation
							JOINT RightHand
							{
								OFFSET -3.04688 -0.00000 0.00000
								CHANNELS 3 Zrotation Yrotation Xrotation
								JOINT RightFingerBase
								{
									OFFSET 0 0 0
									CHANNELS 3 Zrotation Yrotation Xrotation
									JOINT RightHandIndex1
									{
										OFFSET -0.50049 -0.00000 0.00000
										CHANNELS 3 Zrotation Yrotation Xrotation
										End Site
										{
											OFFSET -0.40351 -0.00000 0.00000
										}
									}
								}
								JOINT RThumb
								{
									OFFSET 0 0 0
									CHANNELS 3 Zrotation Yrotation Xrotation
									End Site
									{
										OFFSET -0.40967 -0.00000 0.40967
									}
								}
							}
						}
					}
				}
			}
		}
	}
}
MOTION
Frames: 14
Frame Time: .0083333
7.4701 15.673 0.2866 0 0 0 0 0 0 -21 0 0 0 0 0 0 0 0 0 0 0 0 0 0 21 0 0 0 0 0 0 0 0 0 0 0 0 0 0 0 0 0 0 0 0 0 0 -16 0 0 21 0 0 11 0 0 0 -8 0 0 0 0 0 0 0 0 0 0 0 0 0 0 0 0 0 0 0 0 8 0 0 0 0 0 0 0 0 0 0 0 0 0 0 0 0 0
7.4701 15.6730 0.2866 -22.0527 -87.8251 29.1437 0.0000 0.0000 0.0000 -10.0165 -12.8566 -2.1454 0.4425 4.2680 11.8320 -2.5664 29.1573 -23.6868 0.5087 4.5717 12.6908 0.0000 0.0000 0.0000 8.9331 20.1748 -4.4066 -1.0199 -6.4247 18.0219 2.8502 -30.2444 -23.9187 -0.1601 -2.5784 7.1071 -1.0058 1.1034 -0.5426 0.2636 1.3780 -4.9498 0.7873 0.6980 -4.8321 6.1872 2.5916 -17.9171 -2.1393 2.2596 18.6911 -1.4625 1.2434 8.9155 -0.0000 -0.0000 0.0000 -21.5803 -5.4856 -12.7972 15.8545 -25.3230 -3.5835 -0.0000 -0.0000 13.5076 -17.6310 15.0475 -4.7168 -7.1250 0.0000 -0.0000 -38.9525 41.5154 4.0619 -0.0000 -0.0000 0.0000 28.4880 2.0343 -15.6372 -18.6848 29.0251 -4.8770 0.0000 -0.0000 -0.0701 8.9195 -1.9305 -0.3029 7.1250 -0.0000 -0.0000 27.5348 -30.9679 10.5627
7.4680 15.6724 0.2864 -22.1454 -87.8100 29.2383 0.0000 0.0000 0.0000 -10.0067 -12.8787 -2.1415 0.4436 4.2733 11.8467 -2.5684 29.1691 -23.7008 0.5068 4.5633 12.6671 0.0000 0.0000 0.0000 8.9524 20.1964 -4.3837 -1.0193 -6.4229 18.0166 2.8636 -30.2958 -23.9340 -0.1596 -2.5743 7.0958 -1.0049 1.1059 -0.5365 0.2733 1.3812 -4.9643 0.7964 0.6997 -4.8510 6.2587 2.6075 -17.8681 -2.2655 2.2932 18.6814 -1.5134 1.2506 8.9071 -0.0000 0.0000 0.0000 -21.5866 -5.4414 -12.6988 15.8854 -25.3650 -3.5967 -0.0000 -0.0000 13.4067 -17.6577 15.2664 -4.7912 -7.1250 0.0000 -0.0000 -39.0867 41.6929 3.8704 -0.0000 0.0000 0.0000 28.4610 2.0188 -15.6402 -18.6855 29.0260 -4.8773 0.0000 -0.0000 -0.0474 8.9378 -1.8982 -0.2985 7.1250 -0.0000 -0.0000 27.5389 -30.9378 10.5875
7.4667 15.6723 0.2869 -21.5486 -87.8029 28.6519 0.0000 0.0000 0.0000 -10.0264 -12.8866 -2.1501 0.4440 4.2751 11.8520 -2.5544 29.1290 -23.7384 0.5169 4.6081 12.7941 0.0000 0.0000 0.0000 8.9256 20.2077 -4.3666 -1.0190 -6.4222 18.0144 2.8227 -30.2117 -24.1359 -0.1775 -2.7140 7.4836 -1.0151 1.1067 -0.5435 0.2733 1.3820 -4.9668 0.8021 0.7005 -4.8500 6.2463 2.6291 -17.8424 -2.2952 2.3352 18.6612 -1.5162 1.2662 8.8975 -0.0000 -0.0000 0.0000 -21.5959 -5.4362 -12.7516 15.8762 -25.3525 -3.5928 -0.0000 -0.0000 13.4583 -17.6335 15.1529 -4.7497 -7.1250 0.0000 -0.0000 -39.0094 41.6021 3.9673 -0.0000 -0.0000 0.0000 28.4353 2.0176 -15.6812 -18.6792 29.0182 -4.8743 0.0000 0.0000 0.0067 8.9291 -1.8495 -0.2905 7.1250 -0.0000 -0.0000 27.5192 -30.8947 10.6107
7.4653 15.6725 0.2869 -22.0589 -87.7931 29.1531 0.0000 0.0000 0.0000 -10.0049 -12.8683 -2.1459 0.4445 4.2779 11.8600 -2.5663 29.1590 -23.6936 0.5056 4.5582 12.6526 0.0000 0.0000 0.0000 8.9557 20.1589 -4.3762 -1.0187 -6.4213 18.0117 2.8551 -30.2658 -23.9333 -0.1584 -2.5646 7.0688 -0.9964 1.1116 -0.5376 0.2822 1.3894 -4.9623 0.8006 0.7037 -4.8485 6.2824 2.6386 -17.8121 -2.3662 2.3566 18.6242 -1.5437 1.2711 8.8816 0.0000 0.0000 0.0000 -21.5903 -5.4311 -12.7853 15.8708 -25.3451 -3.5905 -0.0000 -0.0000 13.4944 -17.6816 15.2112 -4.7812 -7.1250 0.0000 -0.0000 -39.0752 41.6445 3.9265 0.0000 0.0000 0.0000 28.4271 2.0111 -15.6953 -18.6914 29.0334 -4.8802 0.0000 0.0000 0.0051 8.9419 -1.9235 -0.3026 7.1250 -0.0000 -0.0000 27.5488 -30.9603 10.5752
7.4642 15.6722 0.2866 -21.7884 -87.7783 28.8902 0.0000 0.0000 0.0000 -10.0053 -12.8820 -2.1556 0.4451 4.2804 11.8668 -2.5680 29.1609 -23.6793 0.5034 4.5483 12.6245 0.0000 0.0000 0.0000 8.9569 20.1999 -4.3482 -1.0182 -6.4195 18.0067 2.8389 -30.2557 -24.0923 -0.1706 -2.6612 7.3368 -1.0004 1.1143 -0.5389 0.2760 1.3927 -4.9634 0.7962 0.7053 -4.8490 6.2803 2.6346 -17.8241 -2.3756 2.3531 18.6213 -1.5469 1.2682 8.8827 0.0000 0.0000 0.0000 -21.5813 -5.4378 -12.8054 15.8636 -25.3354 -3.5874 -0.0000 -0.0000 13.4914 -17.6213 15.1669 -4.7505 -7.1250 0.0000 -0.0000 -39.0079 41.6153 3.9514 0.0000 0.0000 0.0000 28.4393 1.9805 -15.6896 -18.7096 29.0562 -4.8890 0.0000 -0.0000 -0.0716 8.9550 -1.9118 -0.3012 7.1250 -0.0000 -0.0000 27.5549 -30.9490 10.5867
7.4628 15.6720 0.2866 -21.7081 -87.7647 28.8109 0.0000 0.0000 0.0000 -10.0017 -12.8814 -2.1583 0.4454 4.2819 11.8710 -2.5697 29.1616 -23.6618 0.5006 4.5357 12.5889 0.0000 0.0000 0.0000 8.9634 20.1988 -4.3374 -1.0182 -6.4195 18.0066 2.8371 -30.2573 -24.1202 -0.1721 -2.6723 7.3677 -0.9985 1.1157 -0.5362 0.2766 1.3946 -4.9633 0.7957 0.7062 -4.8504 6.2930 2.6399 -17.8135 -2.4122 2.3660 18.6047 -1.5598 1.2712 8.8762 -0.0000 -0.0000 0.0000 -21.5778 -5.4315 -12.8291 15.8582 -25.3280 -3.5851 -0.0000 -0.0000 13.5024 -17.6062 15.1347 -4.7363 -7.1250 0.0000 -0.0000 -38.9799 41.5905 3.9768 -0.0000 -0.0000 0.0000 28.4370 1.9642 -15.6960 -18.7199 29.0692 -4.8940 0.0000 -0.0000 -0.0949 8.9632 -1.9110 -0.3014 7.1250 -0.0000 -0.0000 27.5605 -30.9479 10.5902
7.4616 15.6719 0.2866 -21.5927 -87.7497 28.6954 0.0000 0.0000 0.0000 -9.9988 -12.8788 -2.1636 0.4459 4.2845 11.8784 -2.5715 29.1610 -23.6372 0.4968 4.5187 12.5407 0.0000 0.0000 0.0000 8.9689 20.1904 -4.3258 -1.0177 -6.4180 18.0023 2.8355 -30.2575 -24.1394 -0.1732 -2.6812 7.3925 -0.9971 1.1156 -0.5327 0.2765 1.3946 -4.9619 0.7948 0.7062 -4.8509 6.3003 2.6433 -17.8067 -2.4389 2.3752 18.5890 -1.5690 1.2731 8.8704 -0.0000 0.0000 0.0000 -21.5741 -5.4254 -12.8599 15.8498 -25.3166 -3.5815 -0.0000 -0.0000 13.5193 -17.5875 15.0822 -4.7151 -7.1250 0.0000 -0.0000 -38.9389 41.5494 4.0194 -0.0000 0.0000 0.0000 28.4368 1.9489 -15.6986 -18.7300 29.0818 -4.8989 0.0000 -0.0000 -0.1229 8.9656 -1.9095 -0.3012 7.1250 -0.0000 -0.0000 27.5618 -30.9463 10.5920
7.4603 15.6718 0.2866 -21.4730 -87.7340 28.5751 0.0000 0.0000 0.0000 -9.9956 -12.8740 -2.1685 0.4463 4.2864 11.8840 -2.5730 29.1582 -23.6105 0.4931 4.5021 12.4937 0.0000 0.0000 0.0000 8.9746 20.1758 -4.3175 -1.0173 -6.4169 17.9991 2.8369 -30.2623 -24.1395 -0.1728 -2.6777 7.3827 -0.9967 1.1141 -0.5288 0.2766 1.3927 -4.9596 0.7947 0.7053 -4.8507 6.3082 2.6450 -17.8023 -2.4639 2.3815 18.5732 -1.5779 1.2739 8.8649 -0.0000 0.0000 0.0000 -21.5708 -5.4159 -12.8878 15.8415 -25.3053 -3.5780 -0.0000 -0.0000 13.5335 -17.5705 15.0290 -4.6941 -7.1250 0.0000 -0.0000 -38.8988 41.5075 4.0632 -0.0000 0.0000 0.0000 28.4376 1.9359 -15.6987 -18.7385 29.0924 -4.9030 0.0000 -0.0000 -0.1494 8.9649 -1.9057 -0.3006 7.1250 -0.0000 -0.0000 27.5602 -30.9429 10.5939
7.4592 15.6717 0.2866 -21.3325 -87.7180 28.4341 0.0000 0.0000 0.0000 -9.9931 -12.8690 -2.1732 0.4467 4.2880 11.8883 -2.5741 29.1539 -23.5837 0.4896 4.4866 12.4498 0.0000 0.0000 0.0000 8.9797 20.1630 -4.3078 -1.0169 -6.4158 17.9957 2.8368 -30.2646 -24.1482 -0.1732 -2.6811 7.3920 -0.9976 1.1114 -0.5251 0.2770 1.3892 -4.9566 0.7957 0.7036 -4.8496 6.3111 2.6459 -17.7993 -2.4814 2.3863 18.5577 -1.5838 1.2744 8.8594 -0.0000 -0.0000 0.0000 -21.5691 -5.4044 -12.9127 15.8332 -25.2940 -3.5744 -0.0000 -0.0000 13.5464 -17.5548 14.9793 -4.6745 -7.1250 0.0000 -0.0000 -38.8614 41.4684 4.1038 -0.0000 -0.0000 0.0000 28.4370 1.9257 -15.6970 -18.7436 29.0989 -4.9055 0.0000 -0.0000 -0.1690 8.9605 -1.8987 -0.2993 7.1250 -0.0000 -0.0000 27.5551 -30.9369 10.5960
7.4580 15.6716 0.2866 -21.1678 -87.7032 28.2695 0.0000 0.0000 0.0000 -9.9920 -12.8634 -2.1776 0.4469 4.2890 11.8911 -2.5745 29.1478 -23.5588 0.4867 4.4734 12.4123 0.0000 0.0000 0.0000 8.9827 20.1494 -4.2995 -1.0166 -6.4146 17.9923 2.8363 -30.2652 -24.1561 -0.1737 -2.6849 7.4027 -1.0020 1.1079 -0.5233 0.2778 1.3846 -4.9531 0.7991 0.7016 -4.8469 6.3141 2.6460 -17.7956 -2.4971 2.3894 18.5411 -1.5892 1.2744 8.8534 0.0000 0.0000 0.0000 -21.5680 -5.3905 -12.9333 15.8245 -25.2821 -3.5707 -0.0000 -0.0000 13.5586 -17.5464 14.9399 -4.6602 -7.1250 0.0000 -0.0000 -38.8347 41.4367 4.1372 0.0000 0.0000 0.0000 28.4354 1.9182 -15.6935 -18.7453 29.1009 -4.9063 0.0000 -0.0000 -0.1786 8.9501 -1.8935 -0.2982 7.1250 -0.0000 -0.0000 27.5463 -30.9329 10.5948
7.4569 15.6716 0.2865 -20.9948 -87.6898 28.0986 0.0000 0.0000 0.0000 -9.9913 -12.8548 -2.1841 0.4470 4.2894 11.8923 -2.5747 29.1406 -23.5324 0.4838 4.4602 12.3752 0.0000 0.0000 0.0000 8.9842 20.1383 -4.2937 -1.0162 -6.4135 17.9889 2.8369 -30.2688 -24.1609 -0.1738 -2.6853 7.4038 -1.0087 1.1038 -0.5243 0.2788 1.3792 -4.9493 0.8042 0.6992 -4.8425 6.3128 2.6441 -17.7929 -2.5062 2.3896 18.5247 -1.5919 1.2733 8.8474 0.0000 0.0000 0.0000 -21.5681 -5.3755 -12.9480 15.8165 -25.2711 -3.5672 -0.0000 -0.0000 13.5688 -17.5440 14.9291 -4.6562 -7.1250 0.0000 -0.0000 -38.8274 41.4281 4.1463 0.0000 0.0000 0.0000 28.4323 1.9140 -15.6880 -18.7433 29.0985 -4.9054 0.0000 -0.0000 -0.1804 8.9380 -1.8918 -0.2975 7.1250 -0.0000 -0.0000 27.5373 -30.9321 10.5911
7.4558 15.6717 0.2864 -20.8009 -87.6789 27.9085 0.0000 0.0000 0.0000 -9.9924 -12.8472 -2.1899 0.4468 4.2888 11.8907 -2.5749 29.1344 -23.5094 0.4815 4.4497 12.3455 0.0000 0.0000 0.0000 8.9832 20.1329 -4.2886 -1.0159 -6.4127 17.9867 2.8357 -30.2696 -24.1780 -0.1748 -2.6932 7.4258 -1.0187 1.1001 -0.5267 0.2793 1.3742 -4.9455 0.8106 0.6972 -4.8373 6.3092 2.6407 -17.7915 -2.5098 2.3869 18.5106 -1.5929 1.2714 8.8421 0.0000 0.0000 0.0000 -21.5681 -5.3634 -12.9618 15.8075 -25.2589 -3.5634 -0.0000 -0.0000 13.5827 -17.5465 14.9392 -4.6600 -7.1250 0.0000 -0.0000 -38.8345 41.4361 4.1379 0.0000 0.0000 0.0000 28.4292 1.9092 -15.6808 -18.7392 29.0934 -4.9034 0.0000 -0.0000 -0.1753 8.9306 -1.8929 -0.2974 7.1250 -0.0000 -0.0000 27.5323 -30.9335 10.5876
7.4549 15.6718 0.2863 -20.6361 -87.6699 27.7490 0.0000 0.0000 0.0000 -9.9931 -12.8414 -2.1946 0.4465 4.2871 11.8857 -2.5756 29.1311 -23.4902 0.4796 4.4411 12.3210 0.0000 0.0000 0.0000 8.9819 20.1330 -4.2858 -1.0160 -6.4127 17.9868 2.8345 -30.2714 -24.1985 -0.1760 -2.7023 7.4511 -1.0296 1.0970 -0.5303 0.2800 1.3699 -4.9423 0.8176 0.6955 -4.8321 6.3013 2.6346 -17.7915 -2.5058 2.3799 18.4994 -1.5911 1.2679 8.8378 0.0000 -0.0000 0.0000 -21.5688 -5.3522 -12.9715 15.7981 -25.2461 -3.5594 -0.0000 -0.0000 13.5940 -17.5465 14.9613 -4.6667 -7.1250 0.0000 -0.0000 -38.8459 41.4544 4.1180 0.0000 -0.0000 0.0000 28.4262 1.9045 -15.6729 -18.7327 29.0852 -4.9002 0.0000 -0.0000 -0.1635 8.9277 -1.8965 -0.2979 7.1250 -0.0000 -0.0000 27.5312 -30.9368 10.5845
